<svg xmlns="http://www.w3.org/2000/svg" version="1.1" xmlns:xlink="http://www.w3.org/1999/xlink" xmlns:svgjs="http://svgjs.com/svgjs" width="1440" height="560" preserveAspectRatio="none" viewBox="0 0 1440 560"><g mask="url(&quot;#SvgjsMask1066&quot;)" fill="none"><rect width="1440" height="560" x="0" y="0" fill="rgba(12, 39, 67, 1)"></rect><path d="M 0,116 C 48,129.8 144,196.2 240,185 C 336,173.8 384,66.4 480,60 C 576,53.6 624,159.2 720,153 C 816,146.8 864,24.2 960,29 C 1056,33.8 1104,158 1200,177 C 1296,196 1392,134.6 1440,124L1440 560L0 560z" fill="rgba(24, 78, 133, 1)"></path><path d="M 0,380 C 96,414.2 288,553.4 480,551 C 672,548.6 768,370.4 960,368 C 1152,365.6 1344,504.8 1440,539L1440 560L0 560z" fill="rgba(42, 120, 203, 1)"></path></g><defs><mask id="SvgjsMask1066"><rect width="1440" height="560" fill="#ffffff"></rect></mask></defs></svg>