<svg id="visual" viewBox="0 0 900 600" width="900" height="600" xmlns="http://www.w3.org/2000/svg" xmlns:xlink="http://www.w3.org/1999/xlink" version="1.1"><g stroke-width="1" stroke-linejoin="bevel"><path d="M433 313L534 380L504 266Z" fill="#081a28" stroke="#081a28"></path><path d="M632 318L539 225L504 266Z" fill="#0c2435" stroke="#0c2435"></path><path d="M504 266L431 163L433 313Z" fill="#112e42" stroke="#112e42"></path><path d="M498 513L574 416L534 380Z" fill="#19435d" stroke="#19435d"></path><path d="M534 380L632 318L504 266Z" fill="#081a28" stroke="#081a28"></path><path d="M433 313L405 431L534 380Z" fill="#205a7a" stroke="#205a7a"></path><path d="M574 416L632 318L534 380Z" fill="#277297" stroke="#277297"></path><path d="M632 318L610 229L539 225Z" fill="#205a7a" stroke="#205a7a"></path><path d="M405 431L434 490L534 380Z" fill="#205a7a" stroke="#205a7a"></path><path d="M510 136L431 163L539 225Z" fill="#19435d" stroke="#19435d"></path><path d="M539 225L431 163L504 266Z" fill="#246688" stroke="#246688"></path><path d="M433 313L274 405L405 431Z" fill="#246688" stroke="#246688"></path><path d="M498 513L622 461L574 416Z" fill="#081a28" stroke="#081a28"></path><path d="M574 416L696 360L632 318Z" fill="#112e42" stroke="#112e42"></path><path d="M434 490L498 513L534 380Z" fill="#246688" stroke="#246688"></path><path d="M431 163L326 237L433 313Z" fill="#0c2435" stroke="#0c2435"></path><path d="M560 134L510 136L539 225Z" fill="#19435d" stroke="#19435d"></path><path d="M622 461L696 360L574 416Z" fill="#0c2435" stroke="#0c2435"></path><path d="M632 318L732 277L610 229Z" fill="#00101c" stroke="#00101c"></path><path d="M610 229L560 134L539 225Z" fill="#00101c" stroke="#00101c"></path><path d="M722 217L560 134L610 229Z" fill="#297ea6" stroke="#297ea6"></path><path d="M326 237L281 276L433 313Z" fill="#297ea6" stroke="#297ea6"></path><path d="M405 431L295 495L434 490Z" fill="#246688" stroke="#246688"></path><path d="M281 276L274 405L433 313Z" fill="#1d4e6b" stroke="#1d4e6b"></path><path d="M696 360L732 277L632 318Z" fill="#0c2435" stroke="#0c2435"></path><path d="M732 277L722 217L610 229Z" fill="#15384f" stroke="#15384f"></path><path d="M510 136L403 93L431 163Z" fill="#19435d" stroke="#19435d"></path><path d="M431 163L333 133L326 237Z" fill="#297ea6" stroke="#297ea6"></path><path d="M326 237L209 234L281 276Z" fill="#297ea6" stroke="#297ea6"></path><path d="M495 0L403 93L510 136Z" fill="#205a7a" stroke="#205a7a"></path><path d="M403 93L333 133L431 163Z" fill="#297ea6" stroke="#297ea6"></path><path d="M274 405L295 495L405 431Z" fill="#277297" stroke="#277297"></path><path d="M434 490L462 600L498 513Z" fill="#297ea6" stroke="#297ea6"></path><path d="M408 600L462 600L434 490Z" fill="#277297" stroke="#277297"></path><path d="M617 600L687 529L622 461Z" fill="#081a28" stroke="#081a28"></path><path d="M617 600L622 461L498 513Z" fill="#081a28" stroke="#081a28"></path><path d="M622 461L760 437L696 360Z" fill="#0c2435" stroke="#0c2435"></path><path d="M696 360L827 313L732 277Z" fill="#205a7a" stroke="#205a7a"></path><path d="M338 600L408 600L434 490Z" fill="#205a7a" stroke="#205a7a"></path><path d="M687 529L760 437L622 461Z" fill="#297ea6" stroke="#297ea6"></path><path d="M732 277L815 170L722 217Z" fill="#15384f" stroke="#15384f"></path><path d="M462 600L617 600L498 513Z" fill="#00101c" stroke="#00101c"></path><path d="M333 133L209 234L326 237Z" fill="#00101c" stroke="#00101c"></path><path d="M281 276L184 335L274 405Z" fill="#00101c" stroke="#00101c"></path><path d="M274 405L175 525L295 495Z" fill="#081a28" stroke="#081a28"></path><path d="M209 234L184 335L281 276Z" fill="#246688" stroke="#246688"></path><path d="M184 600L338 600L295 495Z" fill="#297ea6" stroke="#297ea6"></path><path d="M295 495L338 600L434 490Z" fill="#081a28" stroke="#081a28"></path><path d="M184 335L179 378L274 405Z" fill="#081a28" stroke="#081a28"></path><path d="M617 600L682 600L687 529Z" fill="#205a7a" stroke="#205a7a"></path><path d="M687 529L827 506L760 437Z" fill="#297ea6" stroke="#297ea6"></path><path d="M595 0L495 0L560 134Z" fill="#15384f" stroke="#15384f"></path><path d="M560 134L495 0L510 136Z" fill="#00101c" stroke="#00101c"></path><path d="M403 93L274 0L333 133Z" fill="#246688" stroke="#246688"></path><path d="M333 133L183 81L209 234Z" fill="#15384f" stroke="#15384f"></path><path d="M900 320L827 313L900 407Z" fill="#081a28" stroke="#081a28"></path><path d="M760 437L827 313L696 360Z" fill="#112e42" stroke="#112e42"></path><path d="M738 76L595 0L560 134Z" fill="#081a28" stroke="#081a28"></path><path d="M495 0L426 0L403 93Z" fill="#081a28" stroke="#081a28"></path><path d="M738 76L560 134L722 217Z" fill="#19435d" stroke="#19435d"></path><path d="M790 103L738 76L722 217Z" fill="#277297" stroke="#277297"></path><path d="M827 313L815 170L732 277Z" fill="#081a28" stroke="#081a28"></path><path d="M114 200L136 280L209 234Z" fill="#205a7a" stroke="#205a7a"></path><path d="M209 234L136 280L184 335Z" fill="#277297" stroke="#277297"></path><path d="M184 335L136 280L179 378Z" fill="#246688" stroke="#246688"></path><path d="M815 170L790 103L722 217Z" fill="#081a28" stroke="#081a28"></path><path d="M738 76L726 0L595 0Z" fill="#112e42" stroke="#112e42"></path><path d="M104 428L175 525L179 378Z" fill="#205a7a" stroke="#205a7a"></path><path d="M179 378L175 525L274 405Z" fill="#19435d" stroke="#19435d"></path><path d="M794 600L827 506L687 529Z" fill="#081a28" stroke="#081a28"></path><path d="M426 0L274 0L403 93Z" fill="#246688" stroke="#246688"></path><path d="M274 0L183 81L333 133Z" fill="#112e42" stroke="#112e42"></path><path d="M183 81L114 200L209 234Z" fill="#297ea6" stroke="#297ea6"></path><path d="M136 280L104 428L179 378Z" fill="#1d4e6b" stroke="#1d4e6b"></path><path d="M787 0L726 0L738 76Z" fill="#246688" stroke="#246688"></path><path d="M0 363L104 428L136 280Z" fill="#246688" stroke="#246688"></path><path d="M682 600L794 600L687 529Z" fill="#277297" stroke="#277297"></path><path d="M900 407L827 313L760 437Z" fill="#19435d" stroke="#19435d"></path><path d="M827 313L900 177L815 170Z" fill="#0c2435" stroke="#0c2435"></path><path d="M815 170L900 65L790 103Z" fill="#15384f" stroke="#15384f"></path><path d="M900 407L760 437L827 506Z" fill="#1d4e6b" stroke="#1d4e6b"></path><path d="M175 525L184 600L295 495Z" fill="#112e42" stroke="#112e42"></path><path d="M124 523L184 600L175 525Z" fill="#19435d" stroke="#19435d"></path><path d="M900 531L900 407L827 506Z" fill="#00101c" stroke="#00101c"></path><path d="M104 428L124 523L175 525Z" fill="#0c2435" stroke="#0c2435"></path><path d="M183 81L138 89L114 200Z" fill="#1d4e6b" stroke="#1d4e6b"></path><path d="M189 0L138 89L183 81Z" fill="#0c2435" stroke="#0c2435"></path><path d="M900 320L900 177L827 313Z" fill="#081a28" stroke="#081a28"></path><path d="M790 103L787 0L738 76Z" fill="#205a7a" stroke="#205a7a"></path><path d="M900 65L787 0L790 103Z" fill="#277297" stroke="#277297"></path><path d="M274 0L189 0L183 81Z" fill="#277297" stroke="#277297"></path><path d="M900 600L900 531L827 506Z" fill="#0c2435" stroke="#0c2435"></path><path d="M900 177L900 65L815 170Z" fill="#00101c" stroke="#00101c"></path><path d="M794 600L900 600L827 506Z" fill="#0c2435" stroke="#0c2435"></path><path d="M0 527L124 523L104 428Z" fill="#0c2435" stroke="#0c2435"></path><path d="M0 527L88 600L124 523Z" fill="#205a7a" stroke="#205a7a"></path><path d="M124 523L88 600L184 600Z" fill="#19435d" stroke="#19435d"></path><path d="M0 285L0 363L136 280Z" fill="#205a7a" stroke="#205a7a"></path><path d="M0 285L136 280L114 200Z" fill="#081a28" stroke="#081a28"></path><path d="M0 197L114 200L0 130Z" fill="#205a7a" stroke="#205a7a"></path><path d="M0 197L0 285L114 200Z" fill="#081a28" stroke="#081a28"></path><path d="M189 0L104 0L138 89Z" fill="#00101c" stroke="#00101c"></path><path d="M0 130L114 200L138 89Z" fill="#081a28" stroke="#081a28"></path><path d="M900 65L900 0L787 0Z" fill="#081a28" stroke="#081a28"></path><path d="M0 363L0 527L104 428Z" fill="#15384f" stroke="#15384f"></path><path d="M104 0L0 130L138 89Z" fill="#19435d" stroke="#19435d"></path><path d="M0 527L0 600L88 600Z" fill="#277297" stroke="#277297"></path><path d="M104 0L0 0L0 130Z" fill="#19435d" stroke="#19435d"></path></g></svg>